<?xml version="1.0" encoding="UTF-8"?><svg xmlns="http://www.w3.org/2000/svg" viewBox="0 0 48.93 26.49"><defs><style>.d,.e{fill:#f6921e;}.f,.g{fill:#6b6b6b;}.h,.i{fill:#00a04e;}.g,.i,.e{fill-rule:evenodd;}</style></defs><g id="a"/><g id="b"><g id="c"><g><g><path class="d" d="M6.05,17.67H3.56l-.47,1.12h-.87l2.19-4.95h.86l2.16,4.95h-.89l-.47-1.12Zm-.32-.74l-.93-2.2-.93,2.2h1.87Z"/><path class="d" d="M10.72,15.03v.54l-2.15,2.55h2.21v.67h-3.22v-.56l2.15-2.55h-2.09v-.66h3.09Z"/><path class="d" d="M13.66,18.78v-.46c-.27,.33-.7,.5-1.25,.5-.81,0-1.32-.5-1.32-1.17s.52-1.12,1.42-1.13h1.14v-.11c0-.47-.3-.76-.9-.76-.36,0-.74,.13-1.11,.38l-.33-.57c.52-.31,.91-.47,1.62-.47,.97,0,1.51,.5,1.52,1.32v2.47h-.79Zm0-1.32v-.35h-1.02c-.53,0-.78,.14-.78,.5,0,.34,.28,.56,.73,.56,.58,0,1.03-.3,1.07-.71Z"/><path class="d" d="M18.96,13.54v5.25h-.81v-.64c-.27,.44-.72,.68-1.32,.68-1.08,0-1.8-.79-1.8-1.93s.73-1.9,1.79-1.9c.61,0,1.06,.25,1.34,.69v-2.14h.81Zm-.81,3.38c0-.73-.47-1.24-1.15-1.24s-1.15,.52-1.16,1.24c0,.71,.47,1.22,1.16,1.22s1.15-.51,1.15-1.22Z"/><path class="d" d="M20.9,13.95c0,.28-.21,.48-.47,.48s-.47-.21-.47-.48,.21-.49,.47-.49,.47,.21,.47,.49Zm-.07,1.08v3.76h-.81v-3.76h.81Z"/></g><g><g><polygon class="g" points="10.76 5.91 12.47 7.73 12.84 8.24 13.2 8.74 12.76 8.31 12.31 7.88 10.76 5.91"/><polygon class="g" points="11.53 5.39 12.75 7.58 12.97 8.16 13.2 8.74 12.88 8.21 12.55 7.68 11.53 5.39"/><polygon class="g" points="12.42 5.1 13.05 7.51 13.13 8.13 13.2 8.74 13.02 8.15 12.83 7.55 12.42 5.1"/><polygon class="g" points="13.36 5.05 13.37 7.53 13.28 8.13 13.2 8.74 13.17 8.13 13.14 7.51 13.36 5.05"/><polygon class="g" points="14.28 5.26 13.67 7.63 13.44 8.18 13.2 8.74 13.33 8.15 13.45 7.55 14.28 5.26"/><polygon class="g" points="15.14 5.71 13.94 7.8 13.57 8.27 13.2 8.74 13.48 8.21 13.75 7.67 15.14 5.71"/><polygon class="g" points="15.86 6.36 14.16 8.04 13.68 8.39 13.2 8.74 13.61 8.3 14.01 7.86 15.86 6.36"/><polygon class="g" points="16.41 7.17 14.32 8.33 13.76 8.53 13.2 8.74 13.71 8.43 14.21 8.12 16.41 7.17"/><polygon class="g" points="16.73 8.09 14.4 8.64 13.8 8.69 13.2 8.74 13.78 8.58 14.35 8.41 16.73 8.09"/><polygon class="g" points="16.81 9.06 14.4 8.96 13.8 8.85 13.2 8.74 13.8 8.74 14.4 8.73 16.81 9.06"/><polygon class="g" points="16.65 10 14.31 9.27 13.76 9.01 13.2 8.74 13.79 8.9 14.38 9.05 16.65 10"/><polygon class="g" points="16.25 10.86 14.15 9.54 13.68 9.14 13.2 8.74 13.74 9.05 14.27 9.35 16.25 10.86"/><polygon class="g" points="15.65 11.57 13.93 9.76 13.57 9.25 13.2 8.74 13.65 9.18 14.1 9.61 15.65 11.57"/><polygon class="g" points="14.87 12.09 13.66 9.9 13.43 9.32 13.2 8.74 13.53 9.27 13.86 9.81 14.87 12.09"/><polygon class="g" points="13.99 12.39 13.35 9.97 13.28 9.36 13.2 8.74 13.39 9.34 13.57 9.93 13.99 12.39"/><polygon class="g" points="13.05 12.43 13.04 9.96 13.12 9.35 13.2 8.74 13.23 9.36 13.26 9.98 13.05 12.43"/><polygon class="g" points="12.12 12.22 12.74 9.86 12.97 9.3 13.2 8.74 13.08 9.34 12.95 9.94 12.12 12.22"/><polygon class="g" points="11.26 11.78 12.46 9.68 12.83 9.21 13.2 8.74 12.93 9.28 12.65 9.82 11.26 11.78"/><polygon class="g" points="10.54 11.13 12.24 9.44 12.72 9.09 13.2 8.74 12.8 9.18 12.39 9.62 10.54 11.13"/><polygon class="g" points="10 10.31 12.09 9.16 12.64 8.95 13.2 8.74 12.7 9.05 12.19 9.37 10 10.31"/><polygon class="g" points="9.67 9.39 12.01 8.84 12.6 8.79 13.2 8.74 12.63 8.91 12.06 9.07 9.67 9.39"/><polygon class="g" points="9.59 8.43 12.01 8.52 12.61 8.63 13.2 8.74 12.6 8.75 12 8.75 9.59 8.43"/><polygon class="g" points="9.75 7.48 12.09 8.22 12.65 8.48 13.2 8.74 12.61 8.59 12.02 8.43 9.75 7.48"/><polygon class="g" points="10.15 6.63 12.25 7.95 12.73 8.34 13.2 8.74 12.67 8.44 12.13 8.13 10.15 6.63"/></g><path class="g" d="M11.94,5.24c.09-.04,.2,0,.24,.09,.05,.09,.01,.2-.08,.25-.09,.04-.2,0-.24-.09-.05-.09-.01-.2,.07-.25Z"/><path class="g" d="M12.85,5.06c.1-.02,.19,.05,.22,.15,.02,.1-.04,.2-.14,.21-.1,.02-.19-.05-.21-.15-.02-.1,.04-.2,.14-.22Z"/><path class="g" d="M13.79,5.14c.1,0,.18,.1,.17,.2,0,.1-.09,.18-.19,.17-.1,0-.18-.1-.17-.2,0-.1,.09-.18,.19-.17Z"/><path class="g" d="M14.69,5.46c.1,.03,.15,.14,.12,.24-.03,.09-.13,.15-.23,.11-.09-.03-.15-.14-.12-.24,.03-.1,.13-.14,.23-.11Z"/><path class="g" d="M15.49,6c.08,.06,.11,.17,.05,.26-.05,.08-.16,.11-.25,.05-.09-.06-.11-.17-.06-.26,.05-.08,.17-.1,.25-.04Z"/><path class="g" d="M16.13,6.73c.07,.08,.06,.19-.01,.26-.07,.07-.19,.06-.25-.02-.07-.08-.06-.19,.01-.26,.07-.07,.19-.06,.26,.02Z"/><path class="g" d="M16.57,7.6c.05,.09,.01,.2-.08,.25-.09,.04-.2,0-.24-.09-.04-.09-.01-.2,.08-.25,.09-.04,.2,0,.24,.09Z"/><path class="g" d="M16.78,8.54c.02,.1-.04,.2-.14,.21-.1,.02-.19-.05-.22-.15-.02-.1,.04-.2,.14-.21,.1-.02,.19,.05,.21,.15Z"/><path class="g" d="M16.75,9.5c0,.1-.09,.18-.19,.17-.1,0-.18-.1-.17-.2,0-.1,.09-.18,.19-.17,.1,0,.18,.1,.17,.2Z"/><path class="g" d="M16.48,10.41c-.03,.1-.13,.15-.23,.11-.1-.03-.15-.14-.12-.24,.03-.1,.13-.14,.23-.11,.09,.03,.15,.14,.12,.24Z"/><path class="g" d="M15.98,11.2c-.05,.08-.17,.1-.25,.05-.09-.06-.11-.17-.06-.26,.05-.08,.16-.11,.25-.05,.09,.06,.11,.17,.06,.26Z"/><path class="g" d="M15.3,11.83c-.07,.06-.19,.05-.26-.02-.07-.08-.06-.2,0-.26,.07-.07,.19-.06,.26,.02,.07,.08,.06,.2-.01,.26Z"/><path class="g" d="M14.47,12.24c-.09,.04-.2,0-.24-.09-.05-.09-.01-.2,.08-.25,.09-.04,.2,0,.24,.09,.05,.09,.01,.2-.08,.25Z"/><path class="g" d="M13.55,12.42c-.1,.02-.19-.05-.21-.15-.02-.1,.04-.2,.14-.21,.1-.02,.19,.05,.21,.15,.02,.1-.04,.2-.14,.21Z"/><path class="g" d="M12.61,12.35c-.1,0-.18-.1-.17-.2,0-.1,.09-.18,.19-.17,.1,0,.18,.1,.17,.2,0,.1-.09,.18-.19,.17Z"/><path class="g" d="M12.89,8.38c.19-.17,.47-.14,.64,.06,.17,.2,.16,.49-.03,.66-.19,.17-.47,.14-.64-.06-.17-.2-.16-.49,.03-.66Z"/><path class="g" d="M15.96,6.28c-1.13-1.31-2.89-1.69-4.33-1.08v.32c1.35-.65,3.05-.31,4.12,.94,1.29,1.5,1.2,3.74-.21,5-1.1,.98-2.66,1.08-3.91,.37v.32c1.33,.69,2.95,.55,4.1-.47,1.52-1.36,1.62-3.78,.22-5.4Z"/></g><g><path class="f" d="M25.68,20.48l-1.3-1.75-.67,.74v1.01h-.67v-3.96h.67v2.05l1.89-2.05h.79l-1.53,1.69,1.64,2.27h-.8Z"/><path class="f" d="M28.73,20.48v-.37c-.22,.27-.56,.4-1,.4-.65,0-1.06-.4-1.06-.93s.41-.9,1.14-.91h.91v-.09c0-.38-.24-.61-.72-.61-.29,0-.59,.1-.89,.31l-.27-.45c.42-.25,.72-.38,1.3-.38,.78,0,1.21,.4,1.22,1.06v1.98h-.63Zm0-1.06v-.28h-.82c-.42,0-.62,.11-.62,.4,0,.27,.22,.45,.58,.45,.46,0,.82-.24,.85-.57Z"/></g><g><path class="h" d="M17.98,21.51l1.63,3.29,1.63-3.29h.98v4.95h-.77v-3.7l-1.57,3.18h-.54l-1.56-3.18v3.7h-.79v-4.95h.99Z"/><path class="h" d="M25.56,26.46v-.46c-.27,.33-.7,.5-1.25,.5-.81,0-1.32-.5-1.32-1.17s.52-1.12,1.42-1.13h1.14v-.11c0-.47-.3-.76-.9-.76-.36,0-.74,.13-1.11,.38l-.33-.57c.52-.31,.91-.47,1.62-.47,.97,0,1.51,.5,1.52,1.32v2.47h-.79Zm0-1.32v-.35h-1.02c-.53,0-.78,.14-.78,.5,0,.34,.28,.56,.73,.56,.58,0,1.03-.3,1.07-.71Z"/><path class="h" d="M30.92,24.12v2.34h-.81v-2.12c0-.57-.34-.91-.91-.91-.67,0-1.08,.51-1.08,1.17v1.85h-.81v-5.25h.81v2.22c.27-.53,.75-.76,1.39-.76,.88,0,1.4,.55,1.4,1.45Z"/><path class="h" d="M35.41,24.57c0,1.14-.8,1.92-1.96,1.92s-1.97-.78-1.97-1.92,.8-1.9,1.97-1.9,1.96,.77,1.96,1.9Zm-3.11,.01c0,.73,.47,1.22,1.15,1.22s1.15-.5,1.15-1.22-.47-1.22-1.15-1.22-1.15,.5-1.15,1.22Z"/><path class="h" d="M38.21,26.22c-.3,.18-.61,.28-.93,.28-.57,0-1.05-.33-1.05-1.1v-1.95h-.53v-.61h.53v-1.03h.81v1.03h1.11v.61h-1.11v1.8c0,.39,.15,.51,.4,.51,.17,0,.35-.06,.57-.16l.21,.62Z"/><path class="h" d="M39.84,23.31c-.32,0-.55,.11-.55,.37,0,.69,2,.32,1.99,1.68,0,.77-.69,1.12-1.44,1.12-.55,0-1.14-.18-1.51-.52l.29-.58c.33,.29,.85,.47,1.26,.47,.35,0,.62-.12,.62-.4,0-.77-1.98-.34-1.97-1.7,0-.76,.66-1.09,1.39-1.09,.47,0,.98,.14,1.32,.38l-.3,.6c-.33-.21-.75-.33-1.08-.33Z"/><path class="h" d="M44.18,26.46v-.46c-.27,.33-.7,.5-1.25,.5-.81,0-1.32-.5-1.32-1.17s.52-1.12,1.42-1.13h1.14v-.11c0-.47-.3-.76-.9-.76-.36,0-.74,.13-1.11,.38l-.33-.57c.52-.31,.91-.47,1.62-.47,.97,0,1.51,.5,1.52,1.32v2.47h-.79Zm0-1.32v-.35h-1.02c-.53,0-.78,.14-.78,.5,0,.34,.28,.56,.73,.56,.58,0,1.03-.3,1.07-.71Z"/><path class="h" d="M46.04,22.7l1.05,2.96,1.03-2.96h.81l-1.44,3.76h-.84l-1.46-3.76h.85Z"/></g><g><path class="f" d="M3.07,23.56H1.08l-.38,.89H0l1.75-3.96h.68l1.73,3.96h-.71l-.38-.89Zm-.25-.59l-.75-1.76-.75,1.76h1.49Z"/><path class="f" d="M9.54,22.58v1.87h-.65v-1.69c0-.46-.27-.74-.71-.74-.52,.02-.83,.41-.83,.94v1.49h-.65v-1.69c0-.46-.27-.74-.71-.74-.52,.02-.84,.41-.84,.94v1.49h-.65v-3.01h.65v.58c.21-.42,.59-.61,1.09-.61,.54,0,.91,.27,1.05,.72,.19-.5,.59-.72,1.14-.72,.69,0,1.1,.44,1.1,1.16Z"/><path class="f" d="M11.96,21.42v.62c-.61-.03-.99,.32-1.04,.84v1.57h-.65v-3.01h.65v.6c.2-.41,.57-.62,1.04-.62Z"/><path class="f" d="M13.06,20.59c0,.22-.16,.38-.38,.38s-.38-.16-.38-.38,.16-.39,.38-.39,.38,.16,.38,.39Zm-.06,.86v3.01h-.65v-3.01h.65Z"/><path class="f" d="M15.53,24.26c-.24,.14-.49,.22-.74,.22-.45,0-.84-.26-.84-.88v-1.56h-.42v-.49h.42v-.83h.65v.83h.89v.49h-.89v1.44c0,.31,.12,.41,.32,.41,.14,0,.28-.05,.45-.13l.16,.5Z"/></g><path class="e" d="M39.53,4.2c-.21-.1-.37-.02-.51,.04-1.37,.62-2.74,.59-4.17,.18-1.15-.33-2.32-.62-3.52-.73-2.15-.18-4.07,.56-5.94,1.5-.81,.41-1.61,.85-2.51,1.05-.8,.18-1.09-.12-.94-.92,.13-.67-.03-.95-.68-1.17-.17-.06-.36-.1-.54-.13-2.31-.28-4.56,.05-6.79,.6l-.18,.08s2.52-.17,3.62,2.05c1.39-.21,2.78-.15,4.17,.04,.57,.08,.79,.38,.58,.96-.08,.23-.13,.48-.15,.73-.06,.75,.28,1.04,1.01,.87,.24-.05,.48-.13,.7-.23,1-.49,2.01-.96,2.94-1.6,.99-.67,2.06-1.11,3.27-1.24,1.61-.17,3.23-.04,4.84-.11,1.39-.06,2.77-.21,3.96-1.06,.33-.24,.71-.46,.83-.91Z"/><path class="i" d="M39.53,9.3c-.21-.1-.37-.02-.51,.04-1.37,.62-2.74,.59-4.17,.18-1.15-.33-2.32-.62-3.52-.73-2.15-.18-4.07,.56-5.94,1.5-.81,.41-1.61,.85-2.51,1.05-.8,.18-1.09-.12-.94-.92,.13-.67-.03-.95-.68-1.17-.17-.06-.36-.1-.54-.13-.96-.12-1.92-.13-2.86-.06-.03,.36-.29,2.2-2,3.12,.21-.06,.42-.11,.63-.16,1.67-.39,3.36-.36,5.05-.13,.57,.08,.79,.38,.58,.96-.08,.23-.13,.48-.15,.73-.06,.75,.28,1.04,1.01,.87,.24-.05,.48-.13,.7-.23,1-.49,2.01-.96,2.94-1.6,.99-.67,2.06-1.11,3.27-1.24,1.61-.17,3.23-.04,4.84-.11,1.39-.06,2.77-.21,3.96-1.06,.33-.24,.71-.46,.83-.91Z"/><polygon class="g" points="2.55 0 2.55 1.09 9.04 1.09 3.57 11.12 4.47 11.76 10.99 0 2.55 0"/><polygon class="g" points="17.17 0 12.1 0 8.41 6.65 9.26 7.07 12.65 1.09 17.17 1.09 17.17 0"/></g></g></g></svg>